1. The Mystery of the Maya
Mayans built the first Pre-Columbian civilization in the Americas; first calendar and written language; amazing monuments.

2. Mystery of the Templars
Journey of the Knights Templar and the treasure they carried across several countries and two continents to never be found again.

3. The Lost City of Angkor Wat
One thousand year old civilization in the jungles of Cambodia; some of the most magnificent temples and structures.

4. Mystery of the Copper Scroll
A 2000 year old scroll made of copper revealing the treasures scattered throughout the Israeli landscape.

5. Mystery of the Anasazi,
The most ancient tribe, the Anasazi's of the Southwest; cliff houses and a 600 room structure called 'Pueblo Bonito'.

6. Easter Island: Mystery of the Rapa Nui
Stone aged technology was used by the Rapa Nui; amazing stone monuments ever known.

General:

Complete name                    : Secret Worlds\Mystery of the Anasazi.avi
Format                           : AVI
Format/Info                      : Audio Video Interleave
File size                        : 652 MiB
Duration                         : 48mn 8s
Overall bit rate                 : 1 894 Kbps

Video:

Format                           : MPEG-4 Visual
Format profile                   : Simple@L3
Format settings, BVOP            : No
Format settings, QPel            : No
Format settings, GMC             : No warppoints
Format settings, Matrix          : Default (H.263)
Codec ID                         : XVID
Codec ID/Hint                    : XviD
Duration                         : 48mn 8s
Bit rate                         : 1 435 Kbps
Width                            : 704 pixels
Height                           : 396 pixels
Display aspect ratio             : 16:9
Frame rate                       : 25.000 fps
Color space                      : YUV
Chroma subsampling               : 4:2:0
Bit depth                        : 8 bits
Scan type                        : Progressive
Bits/(Pixel*Frame)               : 0.206
Stream size                      : 494 MiB (76%)
Writing library                  : XviD 1.1.2 (UTC 2006-11-01)

Audio:

Format                           : AC-3
Format/Info                      : Audio Coding 3
Mode extension                   : CM (complete main)
Codec ID                         : 2000
Duration                         : 48mn 8s
Bit rate mode                    : Constant
Bit rate                         : 448 Kbps
Channel(s)                       : 6 channels
Channel positions                : Front: L C R, Side: L R, LFE
Sampling rate                    : 48.0 KHz
Bit depth                        : 16 bits
Stream size                      : 154 MiB (24%)
Alignment                        : Aligned on interleaves
Interleave, duration             : 32 ms (0.80 video frame)
Interleave, preload duration     : 256 ms